control3min_grf.mot
version=1
nRows=15
nColumns 19
inDegrees=yes
endheader
time	1_ground_force_vx	1_ground_force_vy	1_ground_force_vz	1_ground_force_px	1_ground_force_py	1_ground_force_pz	1_ground_torque_x	1_ground_torque_y	1_ground_torque_z	2_ground_force_vx	2_ground_force_vy	2_ground_force_vz	2_ground_force_px	2_ground_force_py	2_ground_force_pz	2_ground_torque_x	2_ground_torque_y	2_ground_torque_z
            2.502500	            7.052157	          696.355214	          -78.198883	           -0.229189	            0.006216	           -0.403426	            0.025696	            2.537278	           -0.284930	           -9.338404	          634.514986	           63.602922	           -0.204645	            0.005794	           -0.711388	            0.031055	           -2.110105	           -0.211514
            2.503000	            7.007205	          698.335934	          -77.685848	           -0.229572	            0.006216	           -0.403642	            0.027873	            2.777782	           -0.309012	           -9.909160	          636.906176	           63.799415	           -0.204798	            0.005793	           -0.711490	            0.033896	           -2.178648	           -0.218237
            2.503500	            7.007409	          701.579401	          -77.350939	           -0.229549	            0.006217	           -0.403710	            0.028852	            2.888613	           -0.318477	          -10.526890	          639.298324	           63.714360	           -0.204785	            0.005793	           -0.711386	            0.035754	           -2.171367	           -0.216405
            2.504000	            6.823835	          705.183893	          -77.151601	           -0.229656	            0.006216	           -0.403552	            0.028394	            2.934224	           -0.321023	          -11.050879	          641.690354	           63.723121	           -0.204724	            0.005793	           -0.711252	            0.039479	           -2.292410	           -0.227648
            2.504500	            6.595073	          706.444498	          -76.870494	           -0.229813	            0.006217	           -0.403882	            0.027395	            2.934461	           -0.319308	          -11.573456	          643.713432	           63.918280	           -0.204624	            0.005793	           -0.711224	            0.042591	           -2.368915	           -0.235224
            2.505000	            6.915609	          709.688888	          -76.765658	           -0.229968	            0.006217	           -0.403802	            0.028818	            2.957387	           -0.319895	          -11.860640	          645.370581	           63.689673	           -0.204451	            0.005793	           -0.710924	            0.045033	           -2.450383	           -0.241821
            2.505500	            6.319938	          711.850781	          -76.479775	           -0.229909	            0.006218	           -0.403997	            0.026432	            2.977167	           -0.319861	          -12.196565	          647.579207	           63.697697	           -0.204452	            0.005793	           -0.710963	            0.047181	           -2.505061	           -0.246405
            2.506000	            6.044582	          714.734586	          -76.375006	           -0.230104	            0.006219	           -0.404151	            0.026381	            3.119445	           -0.333337	          -12.157958	          649.791363	           63.095497	           -0.204433	            0.005793	           -0.710913	            0.050978	           -2.724550	           -0.264557
            2.506500	            5.677994	          717.617586	          -76.086600	           -0.230039	            0.006218	           -0.404059	            0.025967	            3.281899	           -0.347969	          -13.244892	          652.366233	           62.917441	           -0.204481	            0.005792	           -0.710733	            0.052181	           -2.570125	           -0.247876
            2.507000	            5.678022	          719.960284	          -75.893128	           -0.230238	            0.006219	           -0.404187	            0.027112	            3.437720	           -0.362380	          -13.626338	          654.206287	           62.924171	           -0.204377	            0.005792	           -0.710788	            0.055014	           -2.641238	           -0.254045
            2.507500	            5.494612	          722.663417	          -75.697655	           -0.230335	            0.006218	           -0.404087	            0.026480	            3.482742	           -0.364811	          -14.100859	          655.862258	           62.836428	           -0.204353	            0.005791	           -0.710378	            0.058314	           -2.712301	           -0.259858
            2.508000	            5.449186	          725.365912	          -75.319099	           -0.230410	            0.006219	           -0.404209	            0.025961	            3.455828	           -0.358839	          -14.574675	          657.333814	           62.841884	           -0.204261	            0.005791	           -0.710221	            0.062044	           -2.798249	           -0.267516
            2.508500	            5.312188	          728.068070	          -74.894449	           -0.230529	            0.006218	           -0.404043	            0.025607	            3.509639	           -0.361027	          -15.005732	          659.911220	           62.616621	           -0.204080	            0.005792	           -0.710215	            0.064924	           -2.855193	           -0.270919
            2.509000	            4.808757	          729.688428	          -74.427689	           -0.230737	            0.006219	           -0.404356	            0.023734	            3.601427	           -0.367343	          -15.201833	          662.304935	           62.484458	           -0.204232	            0.005791	           -0.710261	            0.067054	           -2.921352	           -0.275612
            2.509500	            4.533748	          730.048649	          -74.379608	           -0.230724	            0.006221	           -0.404719	            0.022632	            3.644365	           -0.371299	          -15.582113	          663.778047	           62.114449	           -0.204293	            0.005790	           -0.710023	            0.069305	           -2.952289	           -0.276267
